<?xml version="1.0" standalone="no"?>
<!DOCTYPE svg PUBLIC "-//W3C//DTD SVG 20010904//EN"
 "http://www.w3.org/TR/2001/REC-SVG-20010904/DTD/svg10.dtd">
<svg version="1.0" xmlns="http://www.w3.org/2000/svg"
 width="197.000000pt" height="197.000000pt" viewBox="0 0 197.000000 197.000000"
 preserveAspectRatio="xMidYMid meet">
<metadata>
Created by potrace 1.11, written by Peter Selinger 2001-2013
</metadata>
<g transform="translate(0.000000,197.000000) scale(0.100000,-0.100000)"
fill="#000000" stroke="none">
<path d="M811 1956 l-34 -12 -2 -110 c-1 -60 1 -134 4 -165 l7 -56 -37 0 c-20
0 -42 -3 -48 -7 -23 -15 -9 -22 39 -20 28 0 50 -3 50 -7 0 -9 -83 -37 -125
-43 -94 -12 -160 -46 -250 -130 -38 -36 -73 -66 -77 -66 -10 0 -52 -74 -49
-87 1 -7 -3 -13 -9 -13 -6 0 -9 -4 -6 -9 3 -4 -11 -29 -31 -55 -20 -25 -33
-49 -29 -53 3 -3 -2 -15 -11 -25 -12 -13 -13 -22 -6 -29 8 -8 8 -22 -2 -49 -7
-21 -11 -40 -9 -43 2 -2 -2 -10 -11 -17 -8 -7 -15 -20 -14 -29 0 -12 2 -11 9
4 7 17 9 17 9 3 1 -23 28 -13 37 14 3 11 10 16 15 11 9 -9 -5 -83 -23 -120 -8
-16 -6 -35 6 -73 17 -53 14 -96 -7 -83 -7 4 -6 -1 2 -10 9 -12 10 -17 2 -17
-8 0 -6 -10 4 -30 8 -16 15 -32 15 -35 0 -10 25 -45 32 -45 4 0 4 7 1 17 -4
11 -3 14 5 9 7 -4 12 -13 12 -21 0 -7 7 -15 15 -19 8 -3 15 -12 15 -20 0 -20
33 -76 44 -76 6 0 2 -6 -9 -13 -23 -17 -14 -32 31 -53 27 -13 32 -19 23 -30
-8 -10 -8 -14 0 -15 39 -5 71 -20 71 -35 0 -12 11 -18 31 -16 4 1 21 -18 40
-41 18 -23 37 -44 41 -45 4 -2 8 -9 8 -15 0 -7 14 -20 30 -29 32 -18 42 -5 18
22 -12 13 4 2 89 -60 18 -13 30 -27 27 -31 -2 -5 9 -15 25 -24 38 -19 47 -19
31 0 -10 12 -7 14 20 10 25 -3 29 -1 21 9 -9 11 -4 12 26 7 86 -16 267 5 317
36 6 4 20 9 31 10 11 2 25 10 31 17 7 10 15 12 25 5 12 -8 12 -10 -1 -19 -8
-5 -23 -10 -33 -10 -11 0 -21 -9 -24 -20 -5 -20 -37 -36 -62 -31 -8 1 -10 -2
-5 -10 5 -9 2 -10 -9 -6 -9 3 -19 1 -23 -4 -3 -6 -17 -9 -30 -6 -12 2 -29 0
-36 -5 -8 -6 7 -8 42 -5 60 6 53 1 -25 -19 l-50 -12 63 4 c35 2 72 9 82 14 9
5 20 7 23 4 3 -3 16 0 29 7 12 7 31 14 40 16 18 3 88 41 153 82 32 20 36 26
22 29 -18 4 -17 5 2 18 12 9 21 22 21 30 0 8 4 13 9 9 5 -3 19 7 30 22 36 48
74 81 87 76 15 -6 54 31 54 53 0 8 -5 12 -10 9 -5 -3 -10 -1 -10 4 0 6 3 11 8
11 4 0 8 14 9 31 1 17 12 47 24 67 l22 37 -26 -24 c-15 -13 -29 -33 -33 -44
-7 -22 -35 -57 -45 -57 -12 0 -4 28 13 47 9 10 27 38 41 63 18 32 32 46 50 48
20 3 30 15 52 65 31 71 41 155 19 164 -9 3 -13 19 -12 44 1 23 5 35 9 27 4 -6
6 -15 3 -19 -2 -4 0 -10 5 -13 5 -3 8 17 7 47 -1 46 1 52 19 50 19 -1 19 -1 3
11 -22 16 -24 52 -4 59 13 5 11 17 -8 79 -37 118 -108 233 -195 311 -38 34
-70 50 -56 27 3 -5 1 -10 -5 -10 -7 0 -5 -7 4 -16 15 -15 21 -34 11 -34 -9 0
-61 56 -68 73 -3 9 -12 16 -19 15 -7 -2 -12 3 -10 10 1 6 -4 12 -12 12 -12 0
-26 20 -26 36 0 3 14 -4 31 -16 16 -12 33 -19 37 -15 4 4 -2 13 -12 21 -14 10
-15 14 -6 14 10 0 6 8 -10 24 -14 13 -28 21 -32 19 -5 -2 -8 0 -8 6 0 23 -206
140 -257 145 -26 3 -28 7 -25 40 2 20 11 56 21 79 9 23 15 50 13 60 -7 33 -92
64 -229 82 -12 2 -34 5 -50 8 -15 3 -43 0 -62 -7z m-11 -32 c0 -8 -5 -12 -10
-9 -6 4 -8 11 -5 16 9 14 15 11 15 -7z m393 -759 c26 -10 47 -22 47 -26 0 -5
6 -9 13 -9 16 0 43 -78 52 -150 8 -58 41 -140 56 -140 5 0 14 -12 19 -26 8
-21 7 -29 -7 -41 -12 -10 -14 -16 -6 -19 22 -10 1 -34 -39 -45 -23 -6 -42 -18
-45 -27 -2 -10 -18 -26 -36 -36 -29 -17 -30 -19 -13 -26 18 -6 19 -7 2 -13
-10 -4 -25 -2 -32 4 -7 6 -18 8 -24 4 -5 -3 -10 -1 -10 4 0 19 -36 12 -56 -10
-28 -31 -66 -48 -123 -55 -34 -4 -56 -2 -66 6 -11 9 -22 10 -42 2 -16 -6 -39
-11 -53 -10 -14 0 -48 -1 -76 -2 -49 -3 -54 -1 -85 35 -38 42 -54 75 -38 75 6
0 9 6 7 12 -3 7 -13 13 -24 13 -14 0 -19 7 -19 27 1 14 -2 25 -6 22 -4 -2 -9
18 -11 45 -1 27 0 47 3 45 4 -2 6 11 4 28 -4 50 23 118 47 118 10 0 17 -4 14
-8 -2 -4 -1 -14 5 -22 7 -13 9 -13 9 1 0 27 40 99 55 99 8 0 21 14 30 30 16
31 29 41 19 15 -5 -13 -2 -13 27 -1 28 12 35 21 39 53 l5 38 8 -40 c4 -22 7
-57 7 -77 0 -26 4 -38 14 -38 10 0 17 -17 21 -55 4 -30 11 -55 15 -55 5 0 14
-26 21 -57 l13 -58 9 35 c18 75 25 117 31 168 3 30 8 57 10 60 2 4 7 30 10 57
4 28 14 55 22 62 22 16 122 9 177 -12z m-949 -169 c-3 -9 -10 -16 -15 -16 -5
0 -4 9 3 20 14 22 21 20 12 -4z m1506 -226 c0 -5 -5 -10 -11 -10 -5 0 -7 5 -4
10 3 6 8 10 11 10 2 0 4 -4 4 -10z m-180 -404 c0 -3 -4 -8 -10 -11 -5 -3 -10
-1 -10 4 0 6 5 11 10 11 6 0 10 -2 10 -4z m-53 -50 c-15 -14 -27 -22 -27 -18
0 9 44 50 49 46 2 -2 -8 -15 -22 -28z"/>
<path d="M285 500 c-7 -11 12 -51 29 -62 21 -14 31 -7 12 7 -11 8 -16 15 -10
15 5 0 1 7 -10 15 -10 7 -15 18 -11 24 3 6 4 11 1 11 -3 0 -8 -4 -11 -10z"/>
</g>
</svg>
